<?xml version="1.0" encoding="UTF-8" standalone="no"?>
<svg
   xmlns:dc="http://purl.org/dc/elements/1.1/"
   xmlns:cc="http://creativecommons.org/ns#"
   xmlns:rdf="http://www.w3.org/1999/02/22-rdf-syntax-ns#"
   xmlns:svg="http://www.w3.org/2000/svg"
   xmlns="http://www.w3.org/2000/svg"
   xmlns:sodipodi="http://sodipodi.sourceforge.net/DTD/sodipodi-0.dtd"
   xmlns:inkscape="http://www.inkscape.org/namespaces/inkscape"
   version="1.1"
   id="Capa_1"
   x="0px"
   y="0px"
   viewBox="0 0 512 512"
   style="enable-background:new 0 0 512 512;"
   xml:space="preserve"
   sodipodi:docname="ae.svg"
   inkscape:version="1.0.1 (3bc2e813f5, 2020-09-07)"><metadata
   id="metadata55"><rdf:RDF><cc:Work
       rdf:about=""><dc:format>image/svg+xml</dc:format><dc:type
         rdf:resource="http://purl.org/dc/dcmitype/StillImage" /></cc:Work></rdf:RDF></metadata><defs
   id="defs53" /><sodipodi:namedview
   pagecolor="#ffffff"
   bordercolor="#666666"
   borderopacity="1"
   objecttolerance="10"
   gridtolerance="10"
   guidetolerance="10"
   inkscape:pageopacity="0"
   inkscape:pageshadow="2"
   inkscape:window-width="1920"
   inkscape:window-height="1001"
   id="namedview51"
   showgrid="false"
   inkscape:zoom="0.45254834"
   inkscape:cx="-270.43816"
   inkscape:cy="262.71265"
   inkscape:window-x="-9"
   inkscape:window-y="-9"
   inkscape:window-maximized="1"
   inkscape:current-layer="Capa_1"
   inkscape:document-rotation="0" />
<g
   id="g6"
   style="fill:#f9f9f9">
	<g
   id="g4"
   style="fill:#f9f9f9">
		<path
   d="M0,0v512h512V0H0z M482,482H30V30h452V482z"
   id="path2"
   style="fill:#f9f9f9" />
	</g>
</g>
<g
   id="g12"
   style="fill:#f9f9f9">
	<g
   id="g10"
   style="fill:#f9f9f9">
		<path
   d="M202.18,181.6H172.9L107.86,352h34.08l15.6-42.48h59.52L232.9,352h34.08L202.18,181.6z M163.06,286.24l24.48-66.96    l23.52,66.96H163.06z"
   id="path8"
   style="fill:#f9f9f9" />
	</g>
</g>
<g
   id="g18"
   style="fill:#f9f9f9">
	<g
   id="g16"
   style="fill:#f9f9f9">
		<path
   d="M403.301,288.64c0-43.39-33.551-64.56-65.52-64.56c-44.781,0-66.48,34.545-66.48,65.76c0,34.785,26.074,64.56,66.24,64.56    c38.209,0,53.917-23.28,58.56-32.88l-27.6-7.68c-2.081,5.123-11.918,17.04-29.76,17.04c-27.574,0-32.88-26.479-33.36-31.44h97.2    C402.9,298.161,403.301,290.721,403.301,288.64z M304.901,278.56c1.474-18.435,15.474-31.2,32.4-31.2    c16.449,0,30.949,11.14,32.88,31.2H304.901z"
   id="path14"
   style="fill:#f9f9f9" />
	</g>
</g>
<g
   id="g20">
</g>
<g
   id="g22">
</g>
<g
   id="g24">
</g>
<g
   id="g26">
</g>
<g
   id="g28">
</g>
<g
   id="g30">
</g>
<g
   id="g32">
</g>
<g
   id="g34">
</g>
<g
   id="g36">
</g>
<g
   id="g38">
</g>
<g
   id="g40">
</g>
<g
   id="g42">
</g>
<g
   id="g44">
</g>
<g
   id="g46">
</g>
<g
   id="g48">
</g>
</svg>
