<?xml version="1.0" encoding="UTF-8" standalone="no"?>
<svg
   xmlns:dc="http://purl.org/dc/elements/1.1/"
   xmlns:cc="http://creativecommons.org/ns#"
   xmlns:rdf="http://www.w3.org/1999/02/22-rdf-syntax-ns#"
   xmlns:svg="http://www.w3.org/2000/svg"
   xmlns="http://www.w3.org/2000/svg"
   xmlns:sodipodi="http://sodipodi.sourceforge.net/DTD/sodipodi-0.dtd"
   xmlns:inkscape="http://www.inkscape.org/namespaces/inkscape"
   version="1.1"
   id="Capa_1"
   x="0px"
   y="0px"
   viewBox="0 0 512 512"
   style="enable-background:new 0 0 512 512;"
   xml:space="preserve"
   sodipodi:docname="pr.svg"
   inkscape:version="1.0.1 (3bc2e813f5, 2020-09-07)"><metadata
   id="metadata55"><rdf:RDF><cc:Work
       rdf:about=""><dc:format>image/svg+xml</dc:format><dc:type
         rdf:resource="http://purl.org/dc/dcmitype/StillImage" /></cc:Work></rdf:RDF></metadata><defs
   id="defs53" /><sodipodi:namedview
   pagecolor="#ffffff"
   bordercolor="#666666"
   borderopacity="1"
   objecttolerance="10"
   gridtolerance="10"
   guidetolerance="10"
   inkscape:pageopacity="0"
   inkscape:pageshadow="2"
   inkscape:window-width="1920"
   inkscape:window-height="1001"
   id="namedview51"
   showgrid="false"
   inkscape:zoom="1.4707031"
   inkscape:cx="256"
   inkscape:cy="256"
   inkscape:window-x="-9"
   inkscape:window-y="-9"
   inkscape:window-maximized="1"
   inkscape:current-layer="Capa_1" />
<g
   id="g6"
   style="fill:#f9f9f9">
	<g
   id="g4"
   style="fill:#f9f9f9">
		<path
   d="M0,0v512h512V0H0z M482,482H30V30h452V482z"
   id="path2"
   style="fill:#f9f9f9" />
	</g>
</g>
<g
   id="g12"
   style="fill:#f9f9f9">
	<g
   id="g10"
   style="fill:#f9f9f9">
		<path
   d="M229.18,181.6h-72.24V352h33.12v-57.12h40.32c29.531,0,53.04-25.713,53.04-56.64C283.42,212,262.244,181.6,229.18,181.6z     M228.461,265.84h-38.4v-55.2h36.96c14.057,0,22.8,13.2,22.8,27.6C249.821,255,240.079,265.84,228.461,265.84z"
   id="path8"
   style="fill:#f9f9f9" />
	</g>
</g>
<g
   id="g18"
   style="fill:#f9f9f9">
	<g
   id="g16"
   style="fill:#f9f9f9">
		<path
   d="M378.217,254.08V224.8c-29.04-3.05-43.121,24-45.36,28.32v-26.88h-29.52V352h32.16v-76.08    C338.857,268.72,349.927,254.08,378.217,254.08L378.217,254.08z"
   id="path14"
   style="fill:#f9f9f9" />
	</g>
</g>
<g
   id="g20">
</g>
<g
   id="g22">
</g>
<g
   id="g24">
</g>
<g
   id="g26">
</g>
<g
   id="g28">
</g>
<g
   id="g30">
</g>
<g
   id="g32">
</g>
<g
   id="g34">
</g>
<g
   id="g36">
</g>
<g
   id="g38">
</g>
<g
   id="g40">
</g>
<g
   id="g42">
</g>
<g
   id="g44">
</g>
<g
   id="g46">
</g>
<g
   id="g48">
</g>
</svg>
