<?xml version="1.0" encoding="UTF-8" standalone="no"?>
<svg
   xmlns:dc="http://purl.org/dc/elements/1.1/"
   xmlns:cc="http://creativecommons.org/ns#"
   xmlns:rdf="http://www.w3.org/1999/02/22-rdf-syntax-ns#"
   xmlns:svg="http://www.w3.org/2000/svg"
   xmlns="http://www.w3.org/2000/svg"
   xmlns:sodipodi="http://sodipodi.sourceforge.net/DTD/sodipodi-0.dtd"
   xmlns:inkscape="http://www.inkscape.org/namespaces/inkscape"
   version="1.1"
   id="Capa_1"
   x="0px"
   y="0px"
   viewBox="0 0 512 512"
   style="enable-background:new 0 0 512 512;"
   xml:space="preserve"
   sodipodi:docname="ps.svg"
   inkscape:version="1.0.1 (3bc2e813f5, 2020-09-07)"><metadata
   id="metadata55"><rdf:RDF><cc:Work
       rdf:about=""><dc:format>image/svg+xml</dc:format><dc:type
         rdf:resource="http://purl.org/dc/dcmitype/StillImage" /></cc:Work></rdf:RDF></metadata><defs
   id="defs53" /><sodipodi:namedview
   pagecolor="#ffffff"
   bordercolor="#666666"
   borderopacity="1"
   objecttolerance="10"
   gridtolerance="10"
   guidetolerance="10"
   inkscape:pageopacity="0"
   inkscape:pageshadow="2"
   inkscape:window-width="1920"
   inkscape:window-height="1001"
   id="namedview51"
   showgrid="false"
   inkscape:zoom="1.4707031"
   inkscape:cx="256"
   inkscape:cy="256"
   inkscape:window-x="-9"
   inkscape:window-y="-9"
   inkscape:window-maximized="1"
   inkscape:current-layer="Capa_1" />
<g
   id="g6"
   style="fill:#f9f9f9">
	<g
   id="g4"
   style="fill:#f9f9f9">
		<path
   d="M0,0v512h512V0H0z M482,482H30V30h452V482z"
   id="path2"
   style="fill:#f9f9f9" />
	</g>
</g>
<g
   id="g12"
   style="fill:#f9f9f9">
	<g
   id="g10"
   style="fill:#f9f9f9">
		<path
   d="M213.102,181.6h-72.24V352h33.12v-57.12h40.32c29.531,0,53.04-25.713,53.04-56.64    C267.342,212,246.166,181.6,213.102,181.6z M212.382,265.84h-38.4v-55.2h36.96c14.057,0,22.8,13.2,22.8,27.6    C233.742,255,224,265.84,212.382,265.84z"
   id="path8"
   style="fill:#f9f9f9" />
	</g>
</g>
<g
   id="g18"
   style="fill:#f9f9f9">
	<g
   id="g16"
   style="fill:#f9f9f9">
		<path
   d="M336.939,276.64c-4.642-1.118-24.72-4.39-24.72-15.84c0-9.175,7.531-14.16,19.2-14.16c15.831,0,30.079,9.12,36.48,13.92    l12.96-19.44c-6.881-6.079-21.609-17.28-49.2-17.28c-26.284,0-49.44,14.91-49.44,41.52c0,27.64,36.72,32.801,44.88,35.04    c9.757,2.723,27.6,6.225,27.6,17.04c0,8.81-8.449,13.92-20.64,13.92c-18.809,0-36.48-11.119-44.16-16.56l-12,20.16    c7.2,6.24,27.851,19.44,56.88,19.44c15.679,0,50.88-4.9,50.88-39.84C385.659,285,345.579,278.882,336.939,276.64z"
   id="path14"
   style="fill:#f9f9f9" />
	</g>
</g>
<g
   id="g20">
</g>
<g
   id="g22">
</g>
<g
   id="g24">
</g>
<g
   id="g26">
</g>
<g
   id="g28">
</g>
<g
   id="g30">
</g>
<g
   id="g32">
</g>
<g
   id="g34">
</g>
<g
   id="g36">
</g>
<g
   id="g38">
</g>
<g
   id="g40">
</g>
<g
   id="g42">
</g>
<g
   id="g44">
</g>
<g
   id="g46">
</g>
<g
   id="g48">
</g>
</svg>
